<mxfile host="app.diagrams.net" agent="Mozilla/5.0 (Macintosh; Intel Mac OS X 10_15_7) AppleWebKit/537.36 (KHTML, like Gecko) Chrome/132.0.0.0 Safari/537.36" version="24.7.16" pages="2">
  <diagram id="7DUfMZ7z2TLutpWXC-hP" name="Diagramme de classe">
    <mxGraphModel dx="3936" dy="2355" grid="1" gridSize="10" guides="1" tooltips="1" connect="1" arrows="1" fold="1" page="1" pageScale="1" pageWidth="827" pageHeight="1169" math="0" shadow="0">
      <root>
        <mxCell id="0" />
        <mxCell id="1" parent="0" />
        <mxCell id="55qGOmyRxzpd4ivIbPIp-1" value="&lt;p style=&quot;margin:0px;margin-top:4px;text-align:center;&quot;&gt;&lt;b&gt;InternalTestHelper&lt;/b&gt;&lt;/p&gt;&lt;hr size=&quot;1&quot;/&gt;&lt;p style=&quot;margin:0 0 0 4px;line-height:1.6;&quot;&gt; internalUserNumber: int&lt;/p&gt;" style="verticalAlign=top;align=left;overflow=fill;fontSize=14;fontFamily=Helvetica;html=1;rounded=0;shadow=0;comic=0;labelBackgroundColor=none;strokeWidth=1;" vertex="1" parent="1">
          <mxGeometry x="434" y="420" width="195" height="68" as="geometry" />
        </mxCell>
        <mxCell id="55qGOmyRxzpd4ivIbPIp-2" value="&lt;p style=&quot;margin:0px;margin-top:4px;text-align:center;&quot;&gt;&lt;i&gt;&amp;lt;&amp;lt;record&amp;gt;&amp;gt;&lt;/i&gt;&lt;br/&gt;&lt;b&gt;NearByAttractionDto&lt;/b&gt;&lt;/p&gt;&lt;hr size=&quot;1&quot;/&gt;&lt;p style=&quot;margin:0 0 0 4px;line-height:1.6;&quot;&gt;+ userLocation(): Location&lt;br/&gt;+ name(): String&lt;br/&gt;+ distance(): double&lt;br/&gt;+ attractionLocation(): Location&lt;br/&gt;+ rewards(): double&lt;/p&gt;" style="verticalAlign=top;align=left;overflow=fill;fontSize=14;fontFamily=Helvetica;html=1;rounded=0;shadow=0;comic=0;labelBackgroundColor=none;strokeWidth=1;" vertex="1" parent="1">
          <mxGeometry x="713" y="447" width="228" height="159" as="geometry" />
        </mxCell>
        <mxCell id="55qGOmyRxzpd4ivIbPIp-3" value="&lt;p style=&quot;margin:0px;margin-top:4px;text-align:center;&quot;&gt;&lt;b&gt;RewardsService&lt;/b&gt;&lt;/p&gt;&lt;hr size=&quot;1&quot;/&gt;&lt;p style=&quot;margin:0 0 0 4px;line-height:1.6;&quot;&gt;- nearAttraction(VisitedLocation, Attraction): boolean&lt;br/&gt;- getRewardPoints(Attraction, User): int&lt;br/&gt;+ getDistance(Location, Location): double&lt;br/&gt;+ calculateRewards(User): CompletableFuture&amp;lt;Void&amp;gt;&lt;br/&gt;+ isWithinAttractionProximity(Attraction, Location): boolean&lt;/p&gt;&lt;hr size=&quot;1&quot;/&gt;&lt;p style=&quot;margin:0 0 0 4px;line-height:1.6;&quot;&gt; proximityBuffer: int&lt;/p&gt;" style="verticalAlign=top;align=left;overflow=fill;fontSize=14;fontFamily=Helvetica;html=1;rounded=0;shadow=0;comic=0;labelBackgroundColor=none;strokeWidth=1;" vertex="1" parent="1">
          <mxGeometry x="-9" y="153" width="400" height="197" as="geometry" />
        </mxCell>
        <mxCell id="55qGOmyRxzpd4ivIbPIp-4" value="&lt;p style=&quot;margin:0px;margin-top:4px;text-align:center;&quot;&gt;&lt;b&gt;TourGuideController&lt;/b&gt;&lt;/p&gt;&lt;hr size=&quot;1&quot;/&gt;&lt;p style=&quot;margin:0 0 0 4px;line-height:1.6;&quot;&gt;+ getLocation(String): VisitedLocation&lt;br/&gt;+ getTripDeals(String): List&amp;lt;Provider&amp;gt;&lt;br/&gt;- getUser(String): User&lt;br/&gt;+ index(): String&lt;br/&gt;+ getNearbyAttractions(String): String&lt;br/&gt;+ getRewards(String): List&amp;lt;UserReward&amp;gt;&lt;/p&gt;" style="verticalAlign=top;align=left;overflow=fill;fontSize=14;fontFamily=Helvetica;html=1;rounded=0;shadow=0;comic=0;labelBackgroundColor=none;strokeWidth=1;" vertex="1" parent="1">
          <mxGeometry x="1004" y="362" width="288" height="183" as="geometry" />
        </mxCell>
        <mxCell id="55qGOmyRxzpd4ivIbPIp-5" value="&lt;p style=&quot;margin:0px;margin-top:4px;text-align:center;&quot;&gt;&lt;b&gt;TourGuideModule&lt;/b&gt;&lt;/p&gt;&lt;hr size=&quot;1&quot;/&gt;&lt;p style=&quot;margin:0 0 0 4px;line-height:1.6;&quot;&gt; rewardsService: RewardsService&lt;br/&gt; rewardCentral: RewardCentral&lt;br/&gt; gpsUtil: GpsUtil&lt;/p&gt;" style="verticalAlign=top;align=left;overflow=fill;fontSize=14;fontFamily=Helvetica;html=1;rounded=0;shadow=0;comic=0;labelBackgroundColor=none;strokeWidth=1;" vertex="1" parent="1">
          <mxGeometry x="-318" y="-7" width="248" height="120" as="geometry" />
        </mxCell>
        <mxCell id="55qGOmyRxzpd4ivIbPIp-6" value="&lt;p style=&quot;margin:0px;margin-top:4px;text-align:center;&quot;&gt;&lt;b&gt;TourGuideService&lt;/b&gt;&lt;/p&gt;&lt;hr size=&quot;1&quot;/&gt;&lt;p style=&quot;margin:0 0 0 4px;line-height:1.6;&quot;&gt;+ addUser(User): void&lt;br/&gt;+ getTripDeals(User): List&amp;lt;Provider&amp;gt;&lt;br/&gt;- addShutDownHook(): void&lt;br/&gt;+ trackUserLocation(User): CompletableFuture&amp;lt;VisitedLocation&amp;gt;&lt;br/&gt;+ getUser(String): User&lt;br/&gt;+ getClosestAttractions(VisitedLocation, int): List&amp;lt;Attraction&amp;gt;&lt;br/&gt;- initializeInternalUsers(): void&lt;br/&gt;+ getUserLocation(User): VisitedLocation&lt;br/&gt;+ getUserRewards(User): List&amp;lt;UserReward&amp;gt;&lt;br/&gt;+ getNearByAttractions(VisitedLocation): List&amp;lt;Attraction&amp;gt;&lt;br/&gt;- generateUserLocationHistory(User): void&lt;br/&gt;- generateRandomLatitude(): double&lt;br/&gt;- generateRandomLongitude(): double&lt;/p&gt;&lt;hr size=&quot;1&quot;/&gt;&lt;p style=&quot;margin:0 0 0 4px;line-height:1.6;&quot;&gt; randomTime: Date&lt;br/&gt; allUsers: List&amp;lt;User&amp;gt;&lt;/p&gt;" style="verticalAlign=top;align=left;overflow=fill;fontSize=14;fontFamily=Helvetica;html=1;rounded=0;shadow=0;comic=0;labelBackgroundColor=none;strokeWidth=1;" vertex="1" parent="1">
          <mxGeometry x="217" y="666" width="435" height="400" as="geometry" />
        </mxCell>
        <mxCell id="55qGOmyRxzpd4ivIbPIp-8" value="&lt;p style=&quot;margin:0px;margin-top:4px;text-align:center;&quot;&gt;&lt;b&gt;Tracker&lt;/b&gt;&lt;/p&gt;&lt;hr size=&quot;1&quot;/&gt;&lt;p style=&quot;margin:0 0 0 4px;line-height:1.6;&quot;&gt;+ stopTracking(): void&lt;br/&gt;+ run(): void&lt;/p&gt;" style="verticalAlign=top;align=left;overflow=fill;fontSize=14;fontFamily=Helvetica;html=1;rounded=0;shadow=0;comic=0;labelBackgroundColor=none;strokeWidth=1;" vertex="1" parent="1">
          <mxGeometry x="452" y="187" width="170" height="94" as="geometry" />
        </mxCell>
        <mxCell id="55qGOmyRxzpd4ivIbPIp-9" value="&lt;p style=&quot;margin:0px;margin-top:4px;text-align:center;&quot;&gt;&lt;b&gt;User&lt;/b&gt;&lt;/p&gt;&lt;hr size=&quot;1&quot;/&gt;&lt;p style=&quot;margin:0 0 0 4px;line-height:1.6;&quot;&gt;+ addUserReward(UserReward): void&lt;br/&gt;+ clearVisitedLocations(): void&lt;br/&gt;+ addToVisitedLocations(VisitedLocation): void&lt;/p&gt;&lt;hr size=&quot;1&quot;/&gt;&lt;p style=&quot;margin:0 0 0 4px;line-height:1.6;&quot;&gt; latestLocationTimestamp: Date&lt;br/&gt; emailAddress: String&lt;br/&gt; userRewards: List&amp;lt;UserReward&amp;gt;&lt;br/&gt; userName: String&lt;br/&gt; phoneNumber: String&lt;br/&gt; userId: UUID&lt;br/&gt; visitedLocations: List&amp;lt;VisitedLocation&amp;gt;&lt;br/&gt; tripDeals: List&amp;lt;Provider&amp;gt;&lt;br/&gt; lastVisitedLocation: VisitedLocation&lt;br/&gt; userPreferences: UserPreferences&lt;/p&gt;" style="verticalAlign=top;align=left;overflow=fill;fontSize=14;fontFamily=Helvetica;html=1;rounded=0;shadow=0;comic=0;labelBackgroundColor=none;strokeWidth=1;" vertex="1" parent="1">
          <mxGeometry x="-236" y="397" width="326" height="352" as="geometry" />
        </mxCell>
        <mxCell id="55qGOmyRxzpd4ivIbPIp-10" value="&lt;p style=&quot;margin:0px;margin-top:4px;text-align:center;&quot;&gt;&lt;b&gt;UserPreferences&lt;/b&gt;&lt;/p&gt;&lt;hr size=&quot;1&quot;/&gt;&lt;p style=&quot;margin:0 0 0 4px;line-height:1.6;&quot;&gt; numberOfChildren: int&lt;br/&gt; tripDuration: int&lt;br/&gt; attractionProximity: int&lt;br/&gt; ticketQuantity: int&lt;br/&gt; numberOfAdults: int&lt;/p&gt;" style="verticalAlign=top;align=left;overflow=fill;fontSize=14;fontFamily=Helvetica;html=1;rounded=0;shadow=0;comic=0;labelBackgroundColor=none;strokeWidth=1;" vertex="1" parent="1">
          <mxGeometry x="683" y="193" width="185" height="159" as="geometry" />
        </mxCell>
        <mxCell id="55qGOmyRxzpd4ivIbPIp-11" value="&lt;p style=&quot;margin:0px;margin-top:4px;text-align:center;&quot;&gt;&lt;b&gt;UserReward&lt;/b&gt;&lt;/p&gt;&lt;hr size=&quot;1&quot;/&gt;&lt;p style=&quot;margin:0 0 0 4px;line-height:1.6;&quot;&gt; rewardPoints: int&lt;/p&gt;" style="verticalAlign=top;align=left;overflow=fill;fontSize=14;fontFamily=Helvetica;html=1;rounded=0;shadow=0;comic=0;labelBackgroundColor=none;strokeWidth=1;" vertex="1" parent="1">
          <mxGeometry x="198" y="28" width="150" height="68" as="geometry" />
        </mxCell>
        <mxCell id="55qGOmyRxzpd4ivIbPIp-12" value="" style="html=1;rounded=1;edgeStyle=orthogonalEdgeStyle;dashed=1;startArrow=none;endArrow=openThin;endSize=12;strokeColor=#595959;exitX=0.704;exitY=0.000;exitDx=0;exitDy=0;entryX=0.500;entryY=1.000;entryDx=0;entryDy=0;" edge="1" parent="1" source="55qGOmyRxzpd4ivIbPIp-3" target="55qGOmyRxzpd4ivIbPIp-11">
          <mxGeometry width="50" height="50" relative="1" as="geometry">
            <Array as="points" />
          </mxGeometry>
        </mxCell>
        <mxCell id="55qGOmyRxzpd4ivIbPIp-14" value="" style="html=1;rounded=1;edgeStyle=orthogonalEdgeStyle;dashed=1;startArrow=none;endArrow=openThin;endSize=12;strokeColor=#595959;exitX=0.000;exitY=0.897;exitDx=0;exitDy=0;entryX=1.000;entryY=0.500;entryDx=0;entryDy=0;" edge="1" parent="1" source="55qGOmyRxzpd4ivIbPIp-4" target="55qGOmyRxzpd4ivIbPIp-2">
          <mxGeometry width="50" height="50" relative="1" as="geometry">
            <Array as="points" />
          </mxGeometry>
        </mxCell>
        <mxCell id="55qGOmyRxzpd4ivIbPIp-16" value="" style="html=1;rounded=1;edgeStyle=orthogonalEdgeStyle;dashed=0;startArrow=diamondThinstartSize=12;endArrow=openThin;endSize=12;strokeColor=#595959;exitX=0.500;exitY=1.000;exitDx=0;exitDy=0;entryX=0.500;entryY=1.000;entryDx=0;entryDy=0;" edge="1" parent="1" source="55qGOmyRxzpd4ivIbPIp-4" target="55qGOmyRxzpd4ivIbPIp-3">
          <mxGeometry width="50" height="50" relative="1" as="geometry">
            <Array as="points">
              <mxPoint x="1148" y="636" />
              <mxPoint x="191" y="636" />
            </Array>
          </mxGeometry>
        </mxCell>
        <mxCell id="55qGOmyRxzpd4ivIbPIp-17" value="1" style="edgeLabel;resizable=0;html=1;align=left;verticalAlign=top;strokeColor=default;" vertex="1" connectable="0" parent="55qGOmyRxzpd4ivIbPIp-16">
          <mxGeometry x="423" y="612" as="geometry" />
        </mxCell>
        <mxCell id="55qGOmyRxzpd4ivIbPIp-18" value="1" style="edgeLabel;resizable=0;html=1;align=left;verticalAlign=top;strokeColor=default;" vertex="1" connectable="0" parent="55qGOmyRxzpd4ivIbPIp-16">
          <mxGeometry x="1130" y="550" as="geometry" />
        </mxCell>
        <mxCell id="55qGOmyRxzpd4ivIbPIp-19" value="" style="edgeLabel;resizable=0;html=1;align=left;verticalAlign=top;strokeColor=default;" vertex="1" connectable="0" parent="55qGOmyRxzpd4ivIbPIp-16">
          <mxGeometry x="186" y="471" as="geometry" />
        </mxCell>
        <mxCell id="55qGOmyRxzpd4ivIbPIp-20" value="" style="html=1;rounded=1;edgeStyle=orthogonalEdgeStyle;dashed=0;startArrow=diamondThinstartSize=12;endArrow=openThin;endSize=12;strokeColor=#595959;exitX=0.000;exitY=0.216;exitDx=0;exitDy=0;entryX=0.534;entryY=0.000;entryDx=0;entryDy=0;" edge="1" parent="1" source="55qGOmyRxzpd4ivIbPIp-4" target="55qGOmyRxzpd4ivIbPIp-6">
          <mxGeometry width="50" height="50" relative="1" as="geometry">
            <Array as="points">
              <mxPoint x="657" y="402" />
              <mxPoint x="657" y="500" />
              <mxPoint x="450" y="500" />
            </Array>
          </mxGeometry>
        </mxCell>
        <mxCell id="55qGOmyRxzpd4ivIbPIp-21" value="1" style="edgeLabel;resizable=0;html=1;align=left;verticalAlign=top;strokeColor=default;" vertex="1" connectable="0" parent="55qGOmyRxzpd4ivIbPIp-20">
          <mxGeometry x="980" y="400" as="geometry" />
        </mxCell>
        <mxCell id="55qGOmyRxzpd4ivIbPIp-22" value="1" style="edgeLabel;resizable=0;html=1;align=left;verticalAlign=top;strokeColor=default;" vertex="1" connectable="0" parent="55qGOmyRxzpd4ivIbPIp-20">
          <mxGeometry x="460" y="640" as="geometry" />
        </mxCell>
        <mxCell id="55qGOmyRxzpd4ivIbPIp-24" value="" style="html=1;rounded=1;edgeStyle=orthogonalEdgeStyle;dashed=1;startArrow=none;endArrow=openThin;endSize=12;strokeColor=#595959;exitX=0.500;exitY=1.000;exitDx=0;exitDy=0;" edge="1" parent="1" source="55qGOmyRxzpd4ivIbPIp-5" target="55qGOmyRxzpd4ivIbPIp-3">
          <mxGeometry width="50" height="50" relative="1" as="geometry">
            <Array as="points">
              <mxPoint x="-194" y="245" />
            </Array>
          </mxGeometry>
        </mxCell>
        <mxCell id="55qGOmyRxzpd4ivIbPIp-26" value="" style="html=1;rounded=1;edgeStyle=orthogonalEdgeStyle;dashed=0;startArrow=diamondThinstartSize=12;endArrow=openThin;endSize=12;strokeColor=#595959;exitX=0.500;exitY=0.000;exitDx=0;exitDy=0;entryX=0.500;entryY=1.000;entryDx=0;entryDy=0;" edge="1" parent="1" source="55qGOmyRxzpd4ivIbPIp-6" target="55qGOmyRxzpd4ivIbPIp-3">
          <mxGeometry width="50" height="50" relative="1" as="geometry">
            <Array as="points">
              <mxPoint x="435" y="636" />
              <mxPoint x="191" y="636" />
            </Array>
          </mxGeometry>
        </mxCell>
        <mxCell id="55qGOmyRxzpd4ivIbPIp-27" value="1" style="edgeLabel;resizable=0;html=1;align=left;verticalAlign=top;strokeColor=default;" vertex="1" connectable="0" parent="55qGOmyRxzpd4ivIbPIp-26">
          <mxGeometry x="387" y="612" as="geometry" />
        </mxCell>
        <mxCell id="55qGOmyRxzpd4ivIbPIp-28" value="1" style="edgeLabel;resizable=0;html=1;align=left;verticalAlign=top;strokeColor=default;" vertex="1" connectable="0" parent="55qGOmyRxzpd4ivIbPIp-26">
          <mxGeometry x="170" y="350" as="geometry" />
        </mxCell>
        <mxCell id="55qGOmyRxzpd4ivIbPIp-29" value="" style="edgeLabel;resizable=0;html=1;align=left;verticalAlign=top;strokeColor=default;" vertex="1" connectable="0" parent="55qGOmyRxzpd4ivIbPIp-26">
          <mxGeometry x="190" y="407" as="geometry" />
        </mxCell>
        <mxCell id="55qGOmyRxzpd4ivIbPIp-30" value="" style="html=1;rounded=1;edgeStyle=orthogonalEdgeStyle;dashed=1;startArrow=none;endArrow=openThin;endSize=12;strokeColor=#595959;exitX=0.459;exitY=0.000;exitDx=0;exitDy=0;" edge="1" parent="1" source="55qGOmyRxzpd4ivIbPIp-6" target="55qGOmyRxzpd4ivIbPIp-8">
          <mxGeometry width="50" height="50" relative="1" as="geometry">
            <Array as="points">
              <mxPoint x="417" y="231" />
            </Array>
            <mxPoint x="440" y="250" as="targetPoint" />
          </mxGeometry>
        </mxCell>
        <mxCell id="55qGOmyRxzpd4ivIbPIp-32" value="" style="html=1;rounded=1;edgeStyle=orthogonalEdgeStyle;dashed=0;startArrow=diamondThinstartSize=12;endArrow=openThin;endSize=12;strokeColor=#595959;exitX=0.382;exitY=0.000;exitDx=0;exitDy=0;entryX=0.500;entryY=1.000;entryDx=0;entryDy=0;" edge="1" parent="1" source="55qGOmyRxzpd4ivIbPIp-6" target="55qGOmyRxzpd4ivIbPIp-8">
          <mxGeometry width="50" height="50" relative="1" as="geometry">
            <Array as="points">
              <mxPoint x="384" y="405" />
              <mxPoint x="537" y="405" />
            </Array>
          </mxGeometry>
        </mxCell>
        <mxCell id="55qGOmyRxzpd4ivIbPIp-33" value="1" style="edgeLabel;resizable=0;html=1;align=left;verticalAlign=top;strokeColor=default;" vertex="1" connectable="0" parent="55qGOmyRxzpd4ivIbPIp-32">
          <mxGeometry x="370" y="640" as="geometry" />
        </mxCell>
        <mxCell id="55qGOmyRxzpd4ivIbPIp-34" value="1" style="edgeLabel;resizable=0;html=1;align=left;verticalAlign=top;strokeColor=default;" vertex="1" connectable="0" parent="55qGOmyRxzpd4ivIbPIp-32">
          <mxGeometry x="521" y="280" as="geometry" />
        </mxCell>
        <mxCell id="55qGOmyRxzpd4ivIbPIp-36" value="" style="html=1;rounded=1;edgeStyle=orthogonalEdgeStyle;dashed=1;startArrow=none;endArrow=openThin;endSize=12;strokeColor=#595959;exitX=0.000;exitY=0.019;exitDx=0;exitDy=0;entryX=1.000;entryY=0.785;entryDx=0;entryDy=0;" edge="1" parent="1" source="55qGOmyRxzpd4ivIbPIp-6" target="55qGOmyRxzpd4ivIbPIp-9">
          <mxGeometry width="50" height="50" relative="1" as="geometry">
            <Array as="points" />
          </mxGeometry>
        </mxCell>
        <mxCell id="55qGOmyRxzpd4ivIbPIp-38" value="" style="html=1;rounded=1;edgeStyle=orthogonalEdgeStyle;dashed=0;startArrow=diamondThinstartSize=12;endArrow=openThin;endSize=12;strokeColor=#595959;exitX=0.000;exitY=0.056;exitDx=0;exitDy=0;entryX=1.000;entryY=0.828;entryDx=0;entryDy=0;" edge="1" parent="1" source="55qGOmyRxzpd4ivIbPIp-6" target="55qGOmyRxzpd4ivIbPIp-9">
          <mxGeometry width="50" height="50" relative="1" as="geometry">
            <Array as="points" />
          </mxGeometry>
        </mxCell>
        <mxCell id="55qGOmyRxzpd4ivIbPIp-39" value="1" style="edgeLabel;resizable=0;html=1;align=left;verticalAlign=top;strokeColor=default;" vertex="1" connectable="0" parent="55qGOmyRxzpd4ivIbPIp-38">
          <mxGeometry x="110" y="683" as="geometry" />
        </mxCell>
        <mxCell id="55qGOmyRxzpd4ivIbPIp-40" value="*" style="edgeLabel;resizable=0;html=1;align=left;verticalAlign=top;strokeColor=default;" vertex="1" connectable="0" parent="55qGOmyRxzpd4ivIbPIp-38">
          <mxGeometry x="200" y="683" as="geometry" />
        </mxCell>
        <mxCell id="55qGOmyRxzpd4ivIbPIp-41" value="" style="edgeLabel;resizable=0;html=1;align=left;verticalAlign=top;strokeColor=default;" vertex="1" connectable="0" parent="55qGOmyRxzpd4ivIbPIp-38">
          <mxGeometry x="149" y="625" as="geometry" />
        </mxCell>
        <mxCell id="55qGOmyRxzpd4ivIbPIp-42" value="" style="html=1;rounded=1;edgeStyle=orthogonalEdgeStyle;dashed=0;startArrow=diamondThinstartSize=12;endArrow=openThin;endSize=12;strokeColor=#595959;exitX=1.000;exitY=0.500;exitDx=0;exitDy=0;entryX=0.534;entryY=0.000;entryDx=0;entryDy=0;" edge="1" parent="1" source="55qGOmyRxzpd4ivIbPIp-8" target="55qGOmyRxzpd4ivIbPIp-6">
          <mxGeometry width="50" height="50" relative="1" as="geometry">
            <Array as="points">
              <mxPoint x="657" y="231" />
              <mxPoint x="657" y="500" />
              <mxPoint x="450" y="500" />
            </Array>
          </mxGeometry>
        </mxCell>
        <mxCell id="55qGOmyRxzpd4ivIbPIp-43" value="1" style="edgeLabel;resizable=0;html=1;align=left;verticalAlign=top;strokeColor=default;" vertex="1" connectable="0" parent="55qGOmyRxzpd4ivIbPIp-42">
          <mxGeometry x="630" y="210" as="geometry" />
        </mxCell>
        <mxCell id="55qGOmyRxzpd4ivIbPIp-46" value="" style="html=1;rounded=1;edgeStyle=orthogonalEdgeStyle;dashed=0;startArrow=diamondThinstartSize=12;endArrow=openThin;endSize=12;strokeColor=#595959;exitX=0.000;exitY=0.500;exitDx=0;exitDy=0;entryX=0.500;entryY=0.000;entryDx=0;entryDy=0;" edge="1" parent="1" source="55qGOmyRxzpd4ivIbPIp-9" target="55qGOmyRxzpd4ivIbPIp-10">
          <mxGeometry width="50" height="50" relative="1" as="geometry">
            <Array as="points">
              <mxPoint x="-335" y="573" />
              <mxPoint x="-335" y="-25" />
              <mxPoint x="776" y="-25" />
            </Array>
          </mxGeometry>
        </mxCell>
        <mxCell id="55qGOmyRxzpd4ivIbPIp-47" value="1" style="edgeLabel;resizable=0;html=1;align=left;verticalAlign=top;strokeColor=default;" vertex="1" connectable="0" parent="55qGOmyRxzpd4ivIbPIp-46">
          <mxGeometry x="-250" y="540" as="geometry" />
        </mxCell>
        <mxCell id="55qGOmyRxzpd4ivIbPIp-48" value="1" style="edgeLabel;resizable=0;html=1;align=left;verticalAlign=top;strokeColor=default;" vertex="1" connectable="0" parent="55qGOmyRxzpd4ivIbPIp-46">
          <mxGeometry x="760" y="158" as="geometry" />
        </mxCell>
        <mxCell id="55qGOmyRxzpd4ivIbPIp-50" value="" style="html=1;rounded=1;edgeStyle=orthogonalEdgeStyle;dashed=1;startArrow=none;endArrow=openThin;endSize=12;strokeColor=#595959;exitX=0.000;exitY=0.543;exitDx=0;exitDy=0;entryX=0.581;entryY=0.000;entryDx=0;entryDy=0;" edge="1" parent="1" source="55qGOmyRxzpd4ivIbPIp-9" target="55qGOmyRxzpd4ivIbPIp-10">
          <mxGeometry width="50" height="50" relative="1" as="geometry">
            <Array as="points">
              <mxPoint x="-350" y="588" />
              <mxPoint x="-350" y="-40" />
              <mxPoint x="791" y="-40" />
            </Array>
          </mxGeometry>
        </mxCell>
        <mxCell id="55qGOmyRxzpd4ivIbPIp-52" value="" style="html=1;rounded=1;edgeStyle=orthogonalEdgeStyle;dashed=0;startArrow=diamondThinstartSize=12;endArrow=openThin;endSize=12;strokeColor=#595959;entryX=0.000;entryY=0.500;entryDx=0;entryDy=0;" edge="1" parent="1">
          <mxGeometry width="50" height="50" relative="1" as="geometry">
            <Array as="points">
              <mxPoint x="-40" y="69" />
            </Array>
            <mxPoint x="-40" y="397" as="sourcePoint" />
            <mxPoint x="198" y="69" as="targetPoint" />
          </mxGeometry>
        </mxCell>
        <mxCell id="55qGOmyRxzpd4ivIbPIp-53" value="1" style="edgeLabel;resizable=0;html=1;align=left;verticalAlign=top;strokeColor=default;" vertex="1" connectable="0" parent="55qGOmyRxzpd4ivIbPIp-52">
          <mxGeometry x="170" y="30" as="geometry" />
        </mxCell>
        <mxCell id="55qGOmyRxzpd4ivIbPIp-54" value="*" style="edgeLabel;resizable=0;html=1;align=left;verticalAlign=top;strokeColor=default;" vertex="1" connectable="0" parent="55qGOmyRxzpd4ivIbPIp-52">
          <mxGeometry x="-60" y="370" as="geometry" />
        </mxCell>
      </root>
    </mxGraphModel>
  </diagram>
  <diagram id="z869QHmbYMq-aDFh1rcr" name="Diagramme de séquence">
    <mxGraphModel dx="2954" dy="1127" grid="1" gridSize="10" guides="1" tooltips="1" connect="1" arrows="1" fold="1" page="1" pageScale="1" pageWidth="827" pageHeight="1169" math="0" shadow="0">
      <root>
        <mxCell id="0" />
        <mxCell id="1" parent="0" />
      </root>
    </mxGraphModel>
  </diagram>
</mxfile>
